<?xml version="1.0" standalone="no"?> <!DOCTYPE svg PUBLIC "-//W3C//DTD SVG 1.0//EN" "http://www.w3.org/TR/2001/REC-SVG-20010904/DTD/svg10.dtd" > <svg xmlns="http://www.w3.org/2000/svg" width="100%" height="100%">
<defs >
<font id="proximanovalight" horiz-adv-x="882" ><font-face
    font-family="Proxima Nova Lt"
    units-per-em="2048"
    panose-1="2 0 5 6 3 0 0 2 0 4"
    ascent="1618"
    descent="-430"
    alphabetic="0" />
<missing-glyph horiz-adv-x="1058" d="M889 -184H170V1540H889V-184ZM823 -123V1479H233V-123H823Z" />
<glyph unicode=" " glyph-name="space" horiz-adv-x="530" />
<glyph unicode="!" glyph-name="exclam" horiz-adv-x="448" d="M266 356H182L156 1366H293L266 356ZM262 -18T225 -18T162 8T135 72Q135 107 161 133T225 160T288 134T315 72Q315 35 289 9Z" />
<glyph unicode="&quot;" glyph-name="quotedbl" horiz-adv-x="649" d="M223 874H162Q119 1286 119 1313Q119 1344 140 1365T193 1386Q223 1386 244 1365T266 1313L223 874ZM487 874H426Q383 1286 383 1313Q383 1344 404 1365T457 1386Q489 1386 509 1365T530 1313L487
874Z" />
<glyph unicode="#" glyph-name="numbersign" horiz-adv-x="1185" d="M582 0H483L614 381H373L244 0H147L276 381H49L76 465H305L451 901H219L244 985H479L604 1366H700L575 985H815L940 1366H1038L909 985H1137L1114 901H883L735 465H973L946 381H709L582 0ZM639
465L786 901H547L401 465H639Z" />
<glyph unicode="$" glyph-name="dollar" horiz-adv-x="1196" d="M559 -205V-23Q265 -7 98 193L174 281Q330 100 559 84V657Q516 669 489 677T423 699T358 725T299 755T246 791T204 834T169 887T149 949T141 1024Q141 1180 260 1279T559 1386V1573H653V1386Q902
1366 1053 1196L975 1110Q853 1256 653 1278V762Q706 747 743 735T829 703T911 663T979 612T1035 546T1069 464T1083 362Q1083 309 1070 260T1025 161T945 73T822 9T653 -23V-205H559ZM961 354Q961 414 938 459T868 537T773 589T653 631V84Q737 90 800 117T896
185T945 267T961 354ZM264 1030Q264 978 286 939T353 872T443 826T559 788V1280Q431 1274 348 1204T264 1030Z" />
<glyph unicode="%" glyph-name="percent" horiz-adv-x="1474" d="M389 715Q249 715 160 810T70 1049Q70 1194 159 1290T389 1386Q531 1386 621 1290T711 1049T621 810T389 715ZM354 0H262L1135 1366H1229L354 0ZM1085 -25Q945 -25 855 70T764 309Q764 455 854
551T1085 647Q1226 647 1316 551T1407 309Q1407 165 1317 70T1085 -25ZM389 795Q488 795 552 869T616 1049Q616 1158 553 1232T389 1307Q291 1307 228 1233T164 1049Q164 943 227 869T389 795ZM1085 55Q1185 55 1248 128T1311 309Q1311 418 1248 492T1085 567T922
493T858 309Q858 203 922 129T1085 55Z" />
<glyph unicode="&amp;" glyph-name="ampersand" horiz-adv-x="1308" d="M1233 0H1073Q995 68 899 164Q732 -25 498 -25Q320 -25 203 73T86 348Q86 426 110 490T180 604T274 689T391 762Q279 939 279 1075Q279 1209 373 1297T604 1386Q733 1386 812 1318T891 1128Q891
1095 884 1064T868 1008T838 957T802 912T757 871T708 835T652 801T596 769T537 737Q586 667 713 522L895 324Q992 469 1051 655L1149 614Q1052 371 969 250Q1093 126 1233 0ZM506 70Q685 70 829 236Q679 389 627 455Q525 568 442 686Q388 654 349 624T276 553T223
463T205 354Q205 221 292 146T506 70ZM393 1073Q393 963 487 813Q530 835 553 848T613 883T670 922T715 963T753 1010T775 1062T784 1124Q784 1206 735 1251T606 1296Q517 1296 455 1233T393 1073Z" />
<glyph unicode="&apos;" glyph-name="quotesingle" horiz-adv-x="382" d="M223 874H162Q119 1286 119 1313Q119 1344 140 1365T193 1386Q223 1386 244 1365T266 1313L223 874Z" />
<glyph unicode="(" glyph-name="parenleft" horiz-adv-x="464" d="M430 -358L367 -408Q92 7 92 498Q92 990 367 1403L430 1358Q321 1135 267 941T213 498Q213 251 267 56T430 -358Z" />
<glyph unicode=")" glyph-name="parenright" horiz-adv-x="464" d="M35 -358L98 -408Q373 9 373 498T98 1403L35 1358Q144 1135 198 941T252 498Q252 251 198 56T35 -358Z" />
<glyph unicode="*" glyph-name="asterisk" horiz-adv-x="686" d="M381 817H305L315 1057L115 926L76 993L289 1102L76 1210L115 1278L315 1147L305 1386H381L369 1147L571 1278L610 1210L395 1102L610 993L571 926L369 1057L381 817Z" />
<glyph unicode="+" glyph-name="plus" horiz-adv-x="1015" d="M956 647H555V203H463V647H59V733H463V1165H555V733H956V647Z" />
<glyph unicode="," glyph-name="comma" horiz-adv-x="448" d="M326 29Q326 -54 284 -130T178 -250L119 -201Q167 -168 200 -114T238 -12Q223 -14 217 -14Q180 -14 157 10T133 72Q133 108 159 134T221 160Q265 160 295 125T326 29Z" />
<glyph unicode="-" glyph-name="hyphen" horiz-adv-x="614" d="M553 446H61V545H553V446Z" />
<glyph unicode="." glyph-name="period" horiz-adv-x="448" d="M262 -18T225 -18T161 8T133 72Q133 107 160 133T225 160T288 134T315 72Q315 35 289 9Z" />
<glyph unicode="/" glyph-name="slash" horiz-adv-x="577" d="M92 -41H0L485 1407H578L92 -41Z" />
<glyph unicode="0" glyph-name="zero" horiz-adv-x="1245" d="M625 -25Q518 -25 431 17T287 130T191 293T136 484T119 682Q119 784 136 881T191 1070T287 1232T431 1344T625 1386Q713 1386 788 1357T917 1276T1012 1157T1078 1009T1115 848T1128 682Q1128 581
1111 484T1055 294T960 130T817 18T625 -25ZM625 82Q707 82 773 117T881 211T952 349T992 511T1004 682Q1004 771 993 853T953 1014T883 1151T774 1244T625 1280Q541 1280 475 1245T365 1151T294 1014T254 853T242 682Q242 594 253 512T293 350T365 212T474 118T625
82Z" />
<glyph unicode="1" glyph-name="one" horiz-adv-x="630" d="M461 0H344V1206L125 973L53 1049L354 1366H461V0Z" />
<glyph unicode="2" glyph-name="two" horiz-adv-x="1191" d="M1016 0H115V96Q230 189 305 251T471 392T617 527T730 651T819 773T871 886T891 1001Q891 1072 864 1127T791 1215T692 1263T580 1280Q457 1280 360 1232T205 1102L125 1176Q197 1275 316 1330T580
1386Q658 1386 732 1363T869 1296T971 1175T1010 1001Q1010 938 990 873T939 749T853 622T745 499T610 370T462 241T297 106H1016V0Z" />
<glyph unicode="3" glyph-name="three" horiz-adv-x="1114" d="M530 -25Q372 -25 251 39T66 203L145 272Q205 186 304 134T528 82Q687 82 779 160T872 373Q872 513 771 582T506 651Q419 651 379 647V758Q399 756 506 756Q601 756 677 782T802 868T852 1016Q852
1139 757 1209T524 1280Q411 1280 323 1237T158 1106L84 1180Q161 1273 275 1329T530 1386Q651 1386 750 1345T910 1221T971 1026Q971 966 952 915T902 829T831 768T754 728T678 707Q716 703 756 689T839 646T915 581T969 488T991 367Q991 194 868 85T530 -25Z"
/>
<glyph unicode="4" glyph-name="four" horiz-adv-x="1107" d="M836 0H719V373H72V477L678 1366H836V479H1036V373H836V0ZM719 479V1249L193 479H719Z" />
<glyph unicode="5" glyph-name="five" horiz-adv-x="1191" d="M612 -25Q307 -25 152 199L229 276Q367 82 612 82Q760 82 857 176T954 412Q954 564 859 654T614 745Q426 745 283 612L195 649V1366H983V1260H311V725Q367 780 452 816T637 852Q754 852 851 804T1011
654T1073 416Q1073 217 940 96T612 -25Z" />
<glyph unicode="6" glyph-name="six" horiz-adv-x="1196" d="M621 -25Q488 -25 388 33T231 192T147 415T119 682Q119 790 137 889T195 1080T295 1239T443 1346T641 1386Q767 1386 855 1341T1010 1212L942 1128Q885 1202 816 1241T641 1280Q535 1280 455 1228T328
1088T260 898T238 680Q238 637 240 616Q290 700 401 772T639 844Q732 844 811 817T951 738T1045 602T1079 412Q1079 298 1027 200T868 38T621 -25ZM616 82Q700 82 768 112T877 190T939 296T961 410Q961 571 867 655T618 739Q508 739 407 675T246 506Q251 447 265
390T309 276T379 177T481 109T616 82Z" />
<glyph unicode="7" glyph-name="seven" horiz-adv-x="1028" d="M379 0H250L823 1260H68V1366H963V1284L379 0Z" />
<glyph unicode="8" glyph-name="eight" horiz-adv-x="1169" d="M586 -25Q385 -25 253 76T121 342Q121 476 219 570T461 705Q397 722 343 749T242 817T170 912T143 1034Q143 1104 168 1163T237 1262T337 1331T457 1373T586 1386Q651 1386 713 1373T833 1332T934
1263T1002 1163T1028 1034Q1028 968 1002 913T929 817T829 750T711 705Q854 665 952 571T1051 342Q1051 179 919 77T586 -25ZM586 754Q619 760 652 769T735 800T820 849T882 922T909 1022Q909 1141 817 1210T586 1280T355 1211T262 1022Q262 968 288 923T351 850T437
801T520 770T586 754ZM586 82Q676 82 754 113T882 207T932 350Q932 409 904 460T834 543T743 600T654 636T586 651Q557 648 518 637T428 601T337 544T268 460T240 350Q240 230 341 156T586 82Z" />
<glyph unicode="9" glyph-name="nine" horiz-adv-x="1196" d="M555 -23Q325 -23 186 152L256 236Q313 162 382 123T555 84Q663 84 744 136T870 277T936 468T958 684V748Q908 664 797 592T557 520Q464 520 385 547T245 626T151 762T117 952Q117 1037 148 1115T237
1254T382 1352T575 1389Q708 1389 808 1331T965 1172T1049 949T1077 682Q1077 574 1060 474T1002 283T902 124T754 17T555 -23ZM578 625Q688 625 789 689T950 858Q945 917 931 973T887 1087T818 1186T716 1255T580 1282Q512 1282 455 1262T358 1209T290 1133T249
1045T236 954Q236 793 330 709T578 625Z" />
<glyph unicode=":" glyph-name="colon" horiz-adv-x="444" d="M262 825T225 825T161 851T133 913Q133 950 160 977T225 1004T288 977T315 913Q315 878 289 852ZM262 -18T225 -18T161 8T133 72Q133 107 160 133T225 160T288 134T315 72Q315 35 289 9Z" />
<glyph unicode=";" glyph-name="semicolon" horiz-adv-x="448" d="M262 825T225 825T161 851T133 913Q133 950 160 977T225 1004T288 977T315 913Q315 878 289 852ZM326 29Q326 -53 284 -129T178 -248L119 -199Q167 -166 200 -112T238 -10Q223 -12 217 -12Q180
-12 157 12T133 74Q133 110 159 136T221 162Q265 162 295 127T326 29Z" />
<glyph unicode="&lt;" glyph-name="less" horiz-adv-x="1015" d="M956 184L59 647V723L956 1188V1087L168 684L956 285V184Z" />
<glyph unicode="=" glyph-name="equal" horiz-adv-x="1015" d="M956 842H59V928H956V842ZM956 442H59V526H956V442Z" />
<glyph unicode="&gt;" glyph-name="greater" horiz-adv-x="1015" d="M956 647L59 184V285L850 684L59 1087V1188L956 723V647Z" />
<glyph unicode="?" glyph-name="question" horiz-adv-x="950" d="M438 360Q354 431 354 522Q354 576 376 622T433 702T511 766T596 827T674 889T732 964T754 1059Q754 1153 682 1216T479 1280Q355 1280 271 1233T119 1096L45 1171Q202 1386 485 1386Q664 1386
770 1296T877 1071Q877 1007 854 953T794 861T713 790T624 726T542 666T482 598T459 516Q459 491 475 462T520 412L438 360ZM494 -18T457 -18T394 8T367 72Q367 107 393 133T457 160T520 134T547 72Q547 35 521 9Z" />
<glyph unicode="@" glyph-name="at" horiz-adv-x="1603" d="M721 -143Q538 -143 389 -59T156 173T72 500Q72 663 139 813T318 1070T579 1242T885 1307Q1073 1307 1221 1219T1450 980T1530 647Q1530 535 1502 444T1428 294T1322 205T1198 174Q1118 174 1069 225T1018
348L1016 360Q958 280 868 227T680 174Q539 174 453 263T367 502Q367 609 409 707T519 873T676 983T856 1024Q953 1024 1021 976T1122 854L1149 987H1249L1128 410Q1124 384 1124 371Q1124 319 1153 289T1227 258Q1253 258 1282 269T1345 309T1404 380T1447 492T1464
649Q1464 817 1391 951T1184 1163T879 1241Q732 1241 595 1179T358 1016T198 780T137 502Q137 339 213 206T425 -3T729 -80Q926 -80 1112 37L1147 -14Q947 -143 721 -143ZM595 260T700 260T891 320T1036 465L1102 768Q1079 834 1020 886T868 938Q762 938 670 876T526
715T473 506Q473 398 534 329Z" />
<glyph unicode="A" glyph-name="A" horiz-adv-x="1325" d="M1294 0H1159L1024 336H301L166 0H31L590 1366H735L1294 0ZM985 442L664 1241L340 442H985Z" />
<glyph unicode="B" glyph-name="B" horiz-adv-x="1259" d="M743 0H170V1366H731Q904 1366 1006 1273T1108 1018Q1108 895 1037 810T868 705Q978 688 1056 589T1135 369Q1135 198 1031 99T743 0ZM717 754Q845 754 915 824T985 1006Q985 1115 915 1187T717 1260H287V754H717ZM725
106Q859 106 935 179T1012 377Q1012 489 936 568T725 647H287V106H725Z" />
<glyph unicode="C" glyph-name="C" horiz-adv-x="1374" d="M811 -25Q667 -25 540 27T320 170T173 395T119 682T173 969T320 1193T540 1337T811 1389Q1117 1389 1309 1147L1210 1083Q1144 1174 1038 1228T811 1282Q692 1282 588 1238T407 1116T286 926T242 682Q242
509 317 372T523 158T811 82Q932 82 1038 136T1210 281L1311 219Q1110 -25 811 -25Z" />
<glyph unicode="D" glyph-name="D" horiz-adv-x="1417" d="M606 0H170V1366H606Q761 1366 892 1312T1110 1165T1247 947T1296 682Q1296 540 1247 416T1111 199T892 54T606 0ZM606 106Q738 106 846 151T1026 274T1135 457T1174 682T1136 907T1027 1090T848 1214T606
1260H287V106H606Z" />
<glyph unicode="E" glyph-name="E" horiz-adv-x="1155" d="M1036 0H170V1366H1036V1260H287V754H1022V647H287V106H1036V0Z" />
<glyph unicode="F" glyph-name="F" horiz-adv-x="1110" d="M287 0H170V1366H1036V1260H287V754H1022V647H287V0Z" />
<glyph unicode="G" glyph-name="G" horiz-adv-x="1456" d="M811 -27Q668 -27 541 25T321 168T173 393T119 682T173 970T320 1194T541 1337T811 1389Q1120 1389 1325 1155L1237 1092Q1163 1179 1051 1230T811 1282Q692 1282 588 1238T407 1116T286 926T242 682Q242
509 317 371T523 157T811 80Q936 80 1042 129T1212 246V573H696V678H1329V201Q1235 96 1101 35T811 -27Z" />
<glyph unicode="H" glyph-name="H" horiz-adv-x="1439" d="M1270 0H1153V649H287V0H170V1366H287V756H1153V1366H1270V0Z" />
<glyph unicode="I" glyph-name="I" horiz-adv-x="456" d="M287 0H170V1366H287V0Z" />
<glyph unicode="J" glyph-name="J" horiz-adv-x="962" d="M379 -25Q159 -25 29 143L100 233Q216 82 373 82Q511 82 593 169T676 395V1366H793V395Q793 291 761 210T671 78T540 1T379 -25Z" />
<glyph unicode="K" glyph-name="K" horiz-adv-x="1200" d="M1151 0H1001L438 643L287 477V0H170V1366H287V618L946 1366H1096L514 715L1151 0Z" />
<glyph unicode="L" glyph-name="L" horiz-adv-x="991" d="M922 0H141V1366H260V106H922V0Z" />
<glyph unicode="M" glyph-name="M" horiz-adv-x="1617" d="M1448 0H1329V1219L831 0H786L287 1219V0H170V1366H344L809 229L1272 1366H1448V0Z" />
<glyph unicode="N" glyph-name="N" horiz-adv-x="1431" d="M1262 0H1147L287 1174V0H170V1366H289L1145 209V1366H1262V0Z" />
<glyph unicode="O" glyph-name="O" horiz-adv-x="1564" d="M929 -25T782 -25T510 29T300 178T167 403T119 682T166 961T299 1185T510 1334T782 1389T1054 1335T1264 1186T1398 961T1446 682T1398 403T1265 179T1054 30ZM782 82Q943 82 1067 160T1257 374T1323
682Q1323 854 1257 990T1067 1204T782 1282T497 1204T308 990T242 682Q242 420 390 251T782 82Z" />
<glyph unicode="P" glyph-name="P" horiz-adv-x="1169" d="M287 0H170V1366H682Q809 1366 904 1311T1046 1166T1094 967Q1094 799 982 683T682 567H287V0ZM670 674Q805 674 888 756T971 967Q971 1097 889 1178T670 1260H287V674H670Z" />
<glyph unicode="Q" glyph-name="Q" horiz-adv-x="1564" d="M782 -25Q635 -25 510 29T300 178T167 403T119 682T166 961T299 1185T510 1334T782 1389T1054 1335T1264 1186T1398 961T1446 682Q1446 529 1395 397T1251 168L1395 18L1315 -55L1169 94Q1006 -25 782
-25ZM782 82Q958 82 1092 176L881 395L963 471L1174 250Q1323 421 1323 682Q1323 854 1257 990T1067 1204T782 1282T497 1204T308 990T242 682Q242 420 390 251T782 82Z" />
<glyph unicode="R" glyph-name="R" horiz-adv-x="1216" d="M1112 0H971L588 565H287V0H170V1366H680Q861 1366 978 1258T1096 967Q1096 789 988 685T717 573L1112 0ZM670 672Q806 672 889 754T973 967T890 1178T670 1260H287V672H670Z" />
<glyph unicode="S" glyph-name="S" horiz-adv-x="1189" d="M594 -25Q433 -25 306 34T94 193L170 281Q245 194 353 138T598 82Q697 82 770 107T882 175T938 261T956 354Q956 418 928 466T853 546T744 600T614 642T479 680T350 728T241 793T165 889T137 1024Q137
1133 197 1217T360 1345T586 1389Q882 1389 1049 1196L971 1110Q828 1282 580 1282Q442 1282 351 1211T260 1030Q260 974 288 932T363 863T472 815T602 775T737 736T866 684T975 612T1051 508T1079 362Q1079 306 1065 254T1014 150T925 60T786 -1T594 -25Z" />
<glyph unicode="T" glyph-name="T" horiz-adv-x="1155" d="M637 0H518V1260H72V1366H1083V1260H637V0Z" />
<glyph unicode="U" glyph-name="U" horiz-adv-x="1404" d="M702 -25Q444 -25 307 121T170 524V1366H289V526Q289 317 396 200T702 82Q902 82 1009 199T1116 526V1366H1235V524Q1235 266 1099 121T702 -25Z" />
<glyph unicode="V" glyph-name="V" horiz-adv-x="1325" d="M735 0H590L31 1366H166L664 131L1159 1366H1294L735 0Z" />
<glyph unicode="W" glyph-name="W" horiz-adv-x="1775" d="M1348 0H1217L889 1174L561 0H430L39 1366H170L500 164L836 1366H942L1276 164L1606 1366H1737L1348 0Z" />
<glyph unicode="X" glyph-name="X" horiz-adv-x="1320" d="M1282 0H1137L659 616L184 0H39L588 700L70 1366H217L659 786L1104 1366H1251L733 702L1282 0Z" />
<glyph unicode="Y" glyph-name="Y" horiz-adv-x="1265" d="M692 0H573V584L31 1366H172L633 694L1094 1366H1235L692 584V0Z" />
<glyph unicode="Z" glyph-name="Z" horiz-adv-x="1189" d="M1087 0H102V102L926 1260H102V1366H1073V1266L250 106H1087V0Z" />
<glyph unicode="[" glyph-name="bracketleft" horiz-adv-x="466" d="M432 -389H76V1389H432V1300H166V-301H432V-389Z" />
<glyph unicode="\" glyph-name="backslash" horiz-adv-x="577" d="M485 -41L0 1407H92L578 -41H485Z" />
<glyph unicode="]" glyph-name="bracketright" horiz-adv-x="466" d="M391 -389H35V-301H301V1300H35V1389H391V-389Z" />
<glyph unicode="^" glyph-name="asciicircum" horiz-adv-x="876" d="M838 682H739L438 1282L137 682H39L395 1366H481L838 682Z" />
<glyph unicode="_" glyph-name="underscore" horiz-adv-x="1155" d="M1161 -170H-6V-82H1161V-170Z" />
<glyph unicode="`" glyph-name="grave" horiz-adv-x="442" d="M442 1139H352L0 1434H127L442 1139Z" />
<glyph unicode="a" glyph-name="a" horiz-adv-x="1067" d="M901 0H795V117Q666 -25 459 -25Q394 -25 333 -3T223 59T143 164T113 305Q113 408 164 484T293 597T459 633Q669 633 795 492V692Q795 799 720 859T530 920Q436 920 361 885T219 774L160 848Q238 932
329 973T541 1014Q645 1014 724 982T852 876T901 696V0ZM496 59Q587 59 665 93T795 195V412Q744 479 666 514T496 549Q376 549 301 480T225 303Q225 198 300 129T496 59Z" />
<glyph unicode="b" glyph-name="b" horiz-adv-x="1169" d="M272 248Q317 174 408 123T598 72Q760 72 852 190T944 494T852 798T598 918Q500 918 409 865T272 737V248ZM272 0H166V1366H272V829Q333 915 423 964T616 1014Q815 1014 937 871T1059 494Q1059 257 937
116T616 -25Q510 -25 419 26T272 158V0Z" />
<glyph unicode="c" glyph-name="c" horiz-adv-x="1011" d="M590 -25Q483 -25 393 16T241 127T146 292T111 496Q111 640 169 757T338 944T590 1014Q711 1014 792 971T940 846L866 780Q767 918 596 918Q426 918 325 798T223 496Q223 313 325 193T596 72T866 211L940
145Q875 62 794 19T590 -25Z" />
<glyph unicode="d" glyph-name="d" horiz-adv-x="1169" d="M1004 0H895V158Q840 77 749 26T551 -25Q353 -25 232 116T111 494Q111 728 232 871T551 1014Q655 1014 745 965T895 829V1366H1004V0ZM569 72Q670 72 760 123T895 248V737Q850 813 760 865T569 918Q409
918 316 799T223 494T316 191T569 72Z" />
<glyph unicode="e" glyph-name="e" horiz-adv-x="1161" d="M604 -25Q387 -25 249 121T111 496Q111 602 147 697T245 862T396 973T586 1014Q732 1014 839 942T1000 753T1053 489V461H225Q234 293 338 181T612 68Q808 68 936 205L991 135Q837 -25 604 -25ZM944 545Q943
611 921 675T857 796T743 887T584 922Q500 922 431 888T319 798T252 677T225 545H944Z" />
<glyph unicode="f" glyph-name="f" horiz-adv-x="542" d="M309 0H201V895H37V989H201V1079Q201 1223 272 1304T469 1386Q525 1386 568 1371T657 1317L606 1239Q552 1290 479 1290Q396 1290 353 1235T309 1079V989H510V895H309V0Z" />
<glyph unicode="g" glyph-name="g" horiz-adv-x="1167" d="M559 -401Q427 -401 340 -370T168 -252L229 -166Q293 -242 369 -273T559 -305Q652 -305 725 -275T847 -172T895 8V166Q840 84 749 32T551 -20Q353 -20 232 119T111 496Q111 730 232 872T551 1014Q655
1014 744 965T895 829V989H1004V8Q1004 -101 969 -182T871 -310T731 -379T559 -401ZM569 76Q669 76 759 128T895 256V737Q850 813 760 865T569 918Q409 918 316 799T223 496Q223 311 315 194T569 76Z" />
<glyph unicode="h" glyph-name="h" horiz-adv-x="1105" d="M940 0H834V674Q834 809 772 863T594 918Q502 918 412 869T272 748V0H166V1366H272V840Q331 911 429 962T629 1014Q783 1014 861 937T940 696V0Z" />
<glyph unicode="i" glyph-name="i" horiz-adv-x="438" d="M219 1145Q186 1145 162 1169T137 1227T161 1283T219 1307Q253 1307 277 1284T301 1227T277 1169T219 1145ZM272 0H166V989H272V0Z" />
<glyph unicode="j" glyph-name="j" horiz-adv-x="438" d="M219 1145Q186 1145 162 1169T137 1227T161 1283T219 1307Q253 1307 277 1284T301 1227T277 1169T219 1145ZM4 -401Q-60 -401 -106 -384T-199 -326L-152 -238Q-83 -305 -6 -305T118 -261T166 -125V989H272V-125Q272
-261 203 -331T4 -401Z" />
<glyph unicode="k" glyph-name="k" horiz-adv-x="1034" d="M995 0H852L457 471L272 297V0H166V1366H272V424L854 989H997L537 543L995 0Z" />
<glyph unicode="l" glyph-name="l" horiz-adv-x="438" d="M272 0H166V1366H272V0Z" />
<glyph unicode="m" glyph-name="m" horiz-adv-x="1615" d="M1450 0H1343V692Q1343 918 1145 918Q1067 918 986 869T862 750V0H754V692Q754 918 557 918Q480 918 400 868T272 748V0H166V989H272V840Q310 898 402 956T592 1014Q699 1014 765 961T852 827Q896 902
988 958T1180 1014Q1450 1014 1450 713V0Z" />
<glyph unicode="n" glyph-name="n" horiz-adv-x="1105" d="M940 0H834V670Q834 805 772 861T594 918Q502 918 412 869T272 748V0H166V989H272V840Q331 911 429 962T629 1014Q940 1014 940 692V0Z" />
<glyph unicode="o" glyph-name="o" horiz-adv-x="1169" d="M584 -25Q443 -25 334 45T168 233T111 496Q111 717 241 865T584 1014Q727 1014 836 945T1003 758T1061 496Q1061 351 1004 233T837 45T584 -25ZM584 72Q696 72 780 132T905 288T946 496Q946 608 905 702T780
857T584 918Q473 918 390 858T265 703T223 496Q223 383 264 288T389 133T584 72Z" />
<glyph unicode="p" glyph-name="p" horiz-adv-x="1161" d="M616 -25Q513 -25 423 24T272 160V-377H166V989H272V834Q327 913 418 963T616 1014Q816 1014 937 873T1059 496T937 118T616 -25ZM598 72Q759 72 851 191T944 496Q944 681 852 799T598 918Q499 918 408
867T272 741V252Q318 178 408 125T598 72Z" />
<glyph unicode="q" glyph-name="q" horiz-adv-x="1161" d="M563 72Q662 72 752 125T889 252V741Q844 815 753 866T563 918Q402 918 310 800T217 496Q217 310 309 191T563 72ZM545 -25Q346 -25 224 117T102 496T224 873T545 1014Q651 1014 742 964T889 834V989H995V-377H889V160Q828
74 738 25T545 -25Z" />
<glyph unicode="r" glyph-name="r" horiz-adv-x="649" d="M272 0H166V989H272V819Q417 1010 606 1010V893Q588 897 553 897Q479 897 393 842T272 721V0Z" />
<glyph unicode="s" glyph-name="s" horiz-adv-x="940" d="M461 -25Q221 -25 80 133L143 211Q194 147 278 107T463 66Q585 66 656 122T727 266Q727 321 693 358T603 416T481 453T348 489T226 536T137 615T102 739Q102 857 197 935T455 1014Q678 1014 809 868L750
793Q705 853 628 888T455 924Q342 924 276 873T209 743Q209 693 243 659T332 607T453 572T586 535T707 484T796 399T831 266Q831 139 735 57T461 -25Z" />
<glyph unicode="t" glyph-name="t" horiz-adv-x="563" d="M381 -25Q284 -25 235 31T186 190V895H23V989H186V1260H295V989H496V895H295V207Q295 145 321 109T397 72Q465 72 508 119L549 37Q484 -25 381 -25Z" />
<glyph unicode="u" glyph-name="u" horiz-adv-x="1105" d="M940 0H834V145Q769 72 674 24T477 -25Q323 -25 245 52T166 293V989H272V317Q272 181 333 127T512 72Q604 72 693 119T834 236V989H940V0Z" />
<glyph unicode="v" glyph-name="v" horiz-adv-x="985" d="M553 0H432L14 989H133L494 125L850 989H971L553 0Z" />
<glyph unicode="w" glyph-name="w" horiz-adv-x="1472" d="M1116 0H1014L737 846L459 0H356L35 989H150L412 150L690 989H782L1061 150L1323 989H1438L1116 0Z" />
<glyph unicode="x" glyph-name="x" horiz-adv-x="980" d="M946 0H819L492 436L162 0H35L426 508L57 989H184L492 582L797 989H924L555 508L946 0Z" />
<glyph unicode="y" glyph-name="y" horiz-adv-x="985" d="M100 -387L119 -289Q154 -305 205 -305T291 -279T356 -184L434 -8L14 989H133L494 125L850 989H971L459 -217Q381 -401 207 -401Q147 -401 100 -387Z" />
<glyph unicode="z" glyph-name="z" horiz-adv-x="960" d="M846 0H115V88L700 895H115V989H838V903L246 94H846V0Z" />
<glyph unicode="{" glyph-name="braceleft" horiz-adv-x="509" d="M475 -389H348Q257 -389 188 -318T119 -135V313Q119 374 91 416T12 459V541Q63 541 91 583T119 686V1135Q119 1246 188 1317T348 1389H475V1300H348Q291 1300 250 1254T209 1135V680Q209 538 117
500Q209 460 209 319V-135Q209 -206 250 -253T348 -301H475V-389Z" />
<glyph unicode="|" glyph-name="bar" horiz-adv-x="425" d="M258 -41H170V1407H258V-41Z" />
<glyph unicode="}" glyph-name="braceright" horiz-adv-x="509" d="M35 -389V-301H162Q218 -301 258 -254T299 -135V319Q299 459 391 500Q299 540 299 680V1135Q299 1207 259 1253T162 1300H35V1389H162Q252 1389 321 1317T391 1135V686Q391 625 419 583T498 541V459Q447
459 419 417T391 313V-135Q391 -247 322 -318T162 -389H35Z" />
<glyph unicode="~" glyph-name="asciitilde" horiz-adv-x="1021" d="M879 1366L967 1356Q959 1274 948 1210T915 1081T865 974T792 904T692 877Q641 877 602 899T540 956T499 1035T466 1120T434 1198T391 1256T330 1278Q251 1278 207 1174T145 872L57 887Q66 989
83 1067T130 1216T211 1324T330 1362Q381 1362 420 1340T482 1282T524 1203T557 1117T588 1039T631 981T692 958Q771 958 815 1062T879 1366Z" />
</font>
</defs>
</svg>
