<?xml version="1.0" standalone="no"?> <!DOCTYPE svg PUBLIC "-//W3C//DTD SVG 1.0//EN" "http://www.w3.org/TR/2001/REC-SVG-20010904/DTD/svg10.dtd" > <svg xmlns="http://www.w3.org/2000/svg" width="100%" height="100%">
<defs >
<font id="proximanovasemibold" horiz-adv-x="915" ><font-face
    font-family="Proxima Nova Lt"
    units-per-em="2048"
    panose-1="2 0 5 6 3 0 0 2 0 4"
    ascent="1618"
    descent="-430"
    alphabetic="0" />
<missing-glyph horiz-adv-x="1009" d="M864 -184H145V1540H864V-184ZM799 -123V1479H209V-123H799Z" />
<glyph unicode=" " glyph-name="space" horiz-adv-x="528" />
<glyph unicode="!" glyph-name="exclam" horiz-adv-x="499" d="M344 420H158L119 1366H381L344 420ZM310 -20T252 -20T152 22T109 123Q109 180 151 222T252 264T351 222T393 123Q393 64 352 22Z" />
<glyph unicode="&quot;" glyph-name="quotedbl" horiz-adv-x="778" d="M268 801H170Q98 1231 98 1266Q98 1316 134 1351T219 1386Q270 1386 305 1351T340 1266Q340 1250 322 1134T286 910L268 801ZM608 801H510Q438 1231 438 1266Q438 1316 473 1351T559 1386Q610
1386 645 1351T680 1266Q680 1250 662 1134T626 910L608 801Z" />
<glyph unicode="#" glyph-name="numbersign" horiz-adv-x="1243" d="M659 0H496L616 358H408L289 0H125L246 358H39L84 500H293L416 866H207L250 1008H463L582 1366H745L627 1008H834L952 1366H1116L995 1008H1204L1163 866H950L825 500H1042L997 358H778L659
0ZM662 500L786 866H580L457 500H662Z" />
<glyph unicode="$" glyph-name="dollar" horiz-adv-x="1239" d="M551 -205V-20Q256 2 74 193L209 379Q271 310 358 261T551 195V592Q499 605 460 616T374 647T292 686T224 736T168 802T133 884T119 987Q119 1146 237 1257T551 1384V1573H715V1382Q960 1355 1126
1196L991 1018Q879 1130 715 1163V809Q768 795 807 783T896 752T980 711T1051 659T1109 591T1145 506T1159 399Q1159 232 1047 116T715 -20V-205H551ZM913 377Q913 441 862 480T715 549V193Q814 207 863 259T913 377ZM365 1006Q365 950 412 915T551 852V1174Q464
1163 415 1118T365 1006Z" />
<glyph unicode="%" glyph-name="percent" horiz-adv-x="1529" d="M397 709Q247 709 152 805T57 1047Q57 1193 152 1289T397 1386Q549 1386 643 1290T737 1047T643 805T397 709ZM401 0H264L1137 1366H1276L401 0ZM1283 -25T1133 -25T888 71T793 313Q793 460 887
556T1133 653Q1283 653 1378 556T1473 313Q1473 169 1378 72ZM397 846Q477 846 528 902T580 1047Q580 1137 529 1194T397 1251Q319 1251 268 1194T217 1047Q217 958 268 902T397 846ZM1053 113T1133 113T1264 169T1315 313Q1315 403 1264 460T1133 518T1002 461T950
313Q950 225 1001 169Z" />
<glyph unicode="&amp;" glyph-name="ampersand" horiz-adv-x="1320" d="M1286 0H1004Q934 66 883 119Q711 -25 500 -25Q376 -25 279 17T121 150T61 365Q61 441 84 504T152 614T244 696T358 764Q262 936 262 1065Q262 1202 368 1294T633 1386Q777 1386 873 1312T969
1108Q969 1048 949 997T900 910T821 838T731 781T629 729Q691 643 764 559Q836 471 899 401Q988 534 1034 688L1208 608Q1122 407 1020 268L1286 0ZM528 147Q647 147 764 244Q657 356 596 434Q511 534 444 629Q369 579 329 522T289 383Q289 275 358 211T528 147ZM477
1059Q477 973 545 854Q599 880 636 902T708 954T760 1019T778 1096Q778 1158 740 1193T641 1229Q572 1229 525 1181T477 1059Z" />
<glyph unicode="&apos;" glyph-name="quotesingle" horiz-adv-x="438" d="M268 801H170Q98 1231 98 1266Q98 1316 134 1351T219 1386Q270 1386 305 1351T340 1266Q340 1250 322 1134T286 910L268 801Z" />
<glyph unicode="(" glyph-name="parenleft" horiz-adv-x="565" d="M530 -305L397 -408Q251 -231 169 10T86 498T168 985T397 1403L530 1303Q422 1102 371 916T319 498Q319 267 370 81T530 -305Z" />
<glyph unicode=")" glyph-name="parenright" horiz-adv-x="567" d="M37 -305L170 -408Q314 -231 396 10T479 498Q479 744 397 985T170 1403L37 1303Q144 1101 195 916T246 498Q246 268 195 81T37 -305Z" />
<glyph unicode="*" glyph-name="asterisk" horiz-adv-x="710" d="M412 770H299L309 999L117 877L59 975L262 1079L59 1184L117 1282L309 1157L299 1386H412L401 1157L594 1282L651 1184L446 1079L651 975L594 877L401 999L412 770Z" />
<glyph unicode="+" glyph-name="plus" horiz-adv-x="1028" d="M969 623H590V197H438V623H59V760H438V1171H590V760H969V623Z" />
<glyph unicode="," glyph-name="comma" horiz-adv-x="501" d="M406 78Q406 -25 354 -118T215 -272L117 -193Q168 -163 211 -107T264 0Q252 -6 229 -6Q178 -6 144 31T109 125T149 223T248 264Q314 264 360 214T406 78Z" />
<glyph unicode="-" glyph-name="hyphen" horiz-adv-x="614" d="M553 403H61V588H553V403Z" />
<glyph unicode="." glyph-name="period" horiz-adv-x="503" d="M310 -23T252 -23T152 20T109 123Q109 180 151 222T252 264T352 222T395 123Q395 64 353 21Z" />
<glyph unicode="/" glyph-name="slash" horiz-adv-x="645" d="M160 -41H0L485 1407H645L160 -41Z" />
<glyph unicode="0" glyph-name="zero" horiz-adv-x="1263" d="M633 -25Q521 -25 429 16T274 125T168 285T106 477T86 682Q86 788 105 887T168 1078T273 1237T428 1345T633 1386Q744 1386 836 1346T990 1238T1096 1079T1158 888T1178 682Q1178 577 1159 477T1096
286T991 126T836 16T633 -25ZM633 188Q713 188 773 228T867 338T917 494T934 682Q934 785 918 870T868 1025T774 1134T633 1174T492 1135T398 1026T347 870T330 682T346 495T397 339T492 228T633 188Z" />
<glyph unicode="1" glyph-name="one" horiz-adv-x="778" d="M633 0H393V1057L170 823L31 969L424 1366H633V0Z" />
<glyph unicode="2" glyph-name="two" horiz-adv-x="1218" d="M1092 0H102V190Q250 302 342 374T528 525T672 656T766 765T825 869T842 967Q842 1035 805 1083T713 1153T592 1174Q368 1174 223 1012L84 1167Q172 1275 306 1330T590 1386Q725 1386 835 1339T1014
1195T1083 967Q1083 892 1055 817T979 671T854 523T690 372T487 211H1092V0Z" />
<glyph unicode="3" glyph-name="three" horiz-adv-x="1175" d="M565 -25Q393 -25 259 37T49 197L180 354Q246 277 347 233T557 188Q690 188 766 245T842 397Q842 592 539 592Q423 592 383 588V805Q406 803 539 803Q666 803 743 848T821 983T743 1123T545 1174Q340
1174 190 1022L68 1171Q152 1270 278 1328T567 1386Q790 1386 924 1288T1059 1020Q1059 954 1033 897T964 802T869 740T764 707Q816 701 869 678T971 615T1050 513T1081 375Q1081 197 941 86T565 -25Z" />
<glyph unicode="4" glyph-name="four" horiz-adv-x="1187" d="M948 0H709V309H57V502L618 1366H948V520H1130V309H948V0ZM709 520V1151L293 520H709Z" />
<glyph unicode="5" glyph-name="five" horiz-adv-x="1228" d="M623 -25Q297 -25 117 186L254 352Q393 188 621 188Q748 188 824 257T901 430Q901 539 827 605T627 672Q454 672 328 555L158 604V1366H1053V1155H397V762Q452 813 533 846T707 879Q825 879 923 829T1083
676T1145 438Q1145 229 1000 102T623 -25Z" />
<glyph unicode="6" glyph-name="six" horiz-adv-x="1230" d="M649 -25Q532 -25 437 12T278 114T169 269T106 462T86 682Q86 831 125 958T238 1181T428 1331T688 1386Q928 1386 1079 1235L969 1055Q911 1114 846 1144T688 1174Q577 1174 494 1111T370 947T328 723V684Q380
760 481 818T694 877Q820 877 922 828T1089 677T1153 434Q1153 308 1092 204T914 38T649 -25ZM635 188Q761 188 835 261T909 426Q909 545 830 607T631 670Q543 670 463 627T332 510Q337 451 356 397T409 295T501 217T635 188Z" />
<glyph unicode="7" glyph-name="seven" horiz-adv-x="1089" d="M512 0H248L764 1155H55V1366H1040V1200L512 0Z" />
<glyph unicode="8" glyph-name="eight" horiz-adv-x="1220" d="M753 -25T610 -25T350 17T160 146T86 352Q86 475 173 567T393 705Q267 745 188 826T109 1028Q109 1119 153 1190T270 1303T429 1365T610 1386T791 1365T951 1303T1068 1191T1112 1028Q1112 907 1033
826T827 705Q960 660 1047 568T1135 352Q1135 233 1061 146T870 17ZM610 801Q649 807 687 819T769 852T840 910T868 991Q868 1077 796 1125T610 1174T424 1126T352 991Q352 955 371 924T419 873T484 838T551 814T610 801ZM610 188Q728 188 809 241T891 383Q891
432 860 473T781 539T690 578T610 598Q572 593 529 579T439 540T361 474T330 383Q330 295 410 242T610 188Z" />
<glyph unicode="9" glyph-name="nine" horiz-adv-x="1230" d="M545 -23Q307 -23 152 129L264 311Q322 250 387 220T545 190Q634 190 705 228T818 332T883 476T905 641Q905 668 903 680Q853 604 752 547T537 489Q411 489 309 537T144 688T80 930Q80 1125 220 1257T584
1389Q701 1389 796 1352T955 1251T1064 1096T1127 903T1147 684Q1147 565 1123 459T1049 265T928 112T759 13T545 -23ZM602 694Q689 694 768 738T901 856Q897 903 885 946T848 1032T791 1106T707 1156T596 1176Q470 1176 396 1103T322 938Q322 818 402 756T602
694Z" />
<glyph unicode=":" glyph-name="colon" horiz-adv-x="485" d="M310 719T252 719T152 761T109 860Q109 919 151 961T252 1004T352 962T395 860Q395 803 353 761ZM310 -23T252 -23T152 20T109 123Q109 180 151 222T252 264T352 222T395 123Q395 64 353 21Z" />
<glyph unicode=";" glyph-name="semicolon" horiz-adv-x="501" d="M310 719T252 719T152 761T109 862T151 962T252 1004T353 962T395 862T353 762ZM406 84Q406 -19 354 -111T215 -266L117 -186Q168 -156 211 -100T264 6Q256 2 229 2Q178 2 144 38T109 131Q109
188 149 229T248 270Q314 270 360 220T406 84Z" />
<glyph unicode="&lt;" glyph-name="less" horiz-adv-x="1028" d="M969 184L59 608V764L969 1188V1024L223 684L969 350V184Z" />
<glyph unicode="=" glyph-name="equal" horiz-adv-x="1028" d="M969 811H59V948H969V811ZM969 420H59V559H969V420Z" />
<glyph unicode="&gt;" glyph-name="greater" horiz-adv-x="1028" d="M969 608L59 184V350L807 684L59 1024V1188L969 764V608Z" />
<glyph unicode="?" glyph-name="question" horiz-adv-x="940" d="M387 401Q315 472 315 578Q315 636 339 685T400 766T480 830T559 888T620 950T645 1026Q645 1090 595 1132T451 1174Q276 1174 166 1030L27 1184Q105 1281 220 1333T473 1386Q663 1386 776 1296T889
1065Q889 1003 869 951T817 863T745 795T668 736T597 683T544 625T524 555Q524 529 536 504T569 463L387 401ZM519 -23T461 -23T360 20T317 123Q317 180 360 222T461 264T561 222T604 123Q604 64 562 21Z" />
<glyph unicode="@" glyph-name="at" horiz-adv-x="1603" d="M721 -143Q538 -143 389 -59T156 173T72 500Q72 715 186 902T487 1198T885 1307Q1076 1307 1224 1221T1451 990T1530 670Q1530 551 1495 454T1404 297T1282 206T1147 174Q1063 174 1013 219T954 332L952
346Q898 268 816 221T645 174Q500 174 414 268T328 514Q328 650 395 768T571 954T799 1022Q891 1022 957 981T1059 874L1081 991H1274L1163 467Q1159 447 1159 422Q1159 374 1182 349T1243 324Q1275 324 1309 343T1376 401T1429 510T1450 672Q1450 919 1293 1075T879
1231Q735 1231 600 1171T366 1012T209 779T150 504Q150 384 193 278T313 96T498 -25T731 -70Q929 -70 1106 45L1147 -14Q947 -143 721 -143ZM715 330Q798 330 863 375T975 485L1028 743Q1010 791 963 828T844 866Q711 866 620 764T528 528Q528 440 578 385T715
330Z" />
<glyph unicode="A" glyph-name="A" horiz-adv-x="1378" d="M1376 0H1104L1004 264H377L276 0H4L541 1366H840L1376 0ZM936 475L690 1126L444 475H936Z" />
<glyph unicode="B" glyph-name="B" horiz-adv-x="1329" d="M836 0H145V1366H817Q1000 1366 1103 1267T1206 1018Q1206 895 1138 810T969 705Q1080 688 1156 592T1233 371Q1233 206 1129 103T836 0ZM770 803Q859 803 910 851T961 979Q961 1056 910 1105T770 1155H385V803H770ZM780
211Q877 211 932 261T987 401Q987 482 932 537T780 592H385V211H780Z" />
<glyph unicode="C" glyph-name="C" horiz-adv-x="1396" d="M803 -25Q602 -25 439 63T181 313T86 682Q86 889 181 1051T439 1301T803 1389Q995 1389 1130 1305T1350 1083L1147 977Q1096 1065 1003 1120T803 1176Q599 1176 466 1037T332 682Q332 468 466 328T803
188Q909 188 1002 244T1147 387L1352 285Q1154 -25 803 -25Z" />
<glyph unicode="D" glyph-name="D" horiz-adv-x="1454" d="M655 0H145V1366H653Q864 1366 1027 1279T1279 1037T1368 684Q1368 381 1171 191T655 0ZM653 211Q797 211 905 275T1067 446T1122 684Q1122 817 1070 922T910 1091T655 1155H385V211H653Z" />
<glyph unicode="E" glyph-name="E" horiz-adv-x="1181" d="M1081 0H145V1366H1081V1155H385V803H1067V592H385V211H1081V0Z" />
<glyph unicode="F" glyph-name="F" horiz-adv-x="1153" d="M385 0H145V1366H1081V1155H385V803H1067V592H385V0Z" />
<glyph unicode="G" glyph-name="G" horiz-adv-x="1468" d="M803 -27Q605 -27 442 60T183 310T86 682Q86 840 142 973T295 1197T523 1338T803 1389Q1154 1389 1352 1106L1157 993Q1099 1074 1006 1125T803 1176Q599 1176 466 1037T332 682Q332 468 466 328T803
188Q900 188 987 224T1126 311V522H717V733H1364V223Q1260 106 1117 40T803 -27Z" />
<glyph unicode="H" glyph-name="H" horiz-adv-x="1480" d="M1335 0H1096V598H385V0H145V1366H385V809H1096V1366H1335V0Z" />
<glyph unicode="I" glyph-name="I" horiz-adv-x="530" d="M385 0H145V1366H385V0Z" />
<glyph unicode="J" glyph-name="J" horiz-adv-x="987" d="M381 -25Q156 -25 16 121L129 303Q229 188 362 188Q471 188 536 256T602 436V1366H842V434Q842 209 715 92T381 -25Z" />
<glyph unicode="K" glyph-name="K" horiz-adv-x="1271" d="M1260 0H963L506 578L385 436V0H145V1366H385V717L920 1366H1217L662 723L1260 0Z" />
<glyph unicode="L" glyph-name="L" horiz-adv-x="1036" d="M971 0H129V1366H369V211H971V0Z" />
<glyph unicode="M" glyph-name="M" horiz-adv-x="1710" d="M1565 0H1325V1055L907 0H805L385 1055V0H145V1366H483L856 428L1227 1366H1565V0Z" />
<glyph unicode="N" glyph-name="N" horiz-adv-x="1474" d="M1329 0H1098L385 977V0H145V1366H391L1090 420V1366H1329V0Z" />
<glyph unicode="O" glyph-name="O" horiz-adv-x="1566" d="M935 -25T784 -25T503 28T282 175T138 400T86 682T138 964T281 1188T503 1335T784 1389T1065 1336T1287 1189T1431 964T1483 682T1431 400T1287 176T1065 29ZM784 188Q987 188 1112 328T1237 682Q1237
897 1113 1036T784 1176T456 1037T332 682Q332 468 456 328T784 188Z" />
<glyph unicode="P" glyph-name="P" horiz-adv-x="1247" d="M385 0H145V1366H748Q886 1366 988 1307T1141 1152T1192 938Q1192 821 1142 726T988 571T748 512H385V0ZM715 723Q817 723 881 782T946 938Q946 1036 882 1095T715 1155H385V723H715Z" />
<glyph unicode="Q" glyph-name="Q" horiz-adv-x="1566" d="M784 -25Q633 -25 503 28T282 175T138 400T86 682T138 964T281 1188T503 1335T784 1389T1065 1336T1287 1189T1431 964T1483 682Q1483 389 1300 190L1413 63L1247 -76L1128 57Q973 -25 784 -25ZM784 188Q887
188 977 229L807 422L975 561L1145 369Q1237 500 1237 682Q1237 897 1113 1036T784 1176T456 1037T332 682Q332 468 456 328T784 188Z" />
<glyph unicode="R" glyph-name="R" horiz-adv-x="1288" d="M1204 0H926L625 510H385V0H145V1366H745Q947 1366 1070 1248T1194 938Q1194 850 1167 778T1093 656T990 577T868 537L1204 0ZM715 721Q817 721 882 781T948 940Q948 1037 883 1096T715 1155H385V721H715Z" />
<glyph unicode="S" glyph-name="S" horiz-adv-x="1216" d="M614 -25Q268 -25 57 193L193 379Q270 296 380 242T625 188Q761 188 829 243T897 377Q897 435 853 474T739 536T584 579T415 627T260 696T146 811T102 987Q102 1160 240 1274T600 1389Q914 1389 1110
1196L975 1018Q896 1097 793 1136T578 1176Q474 1176 411 1129T348 1006Q348 965 375 935T448 885T554 848T680 814T811 777T937 725T1043 651T1116 545T1143 399Q1143 330 1124 268T1062 152T959 59T810 -2T614 -25Z" />
<glyph unicode="T" glyph-name="T" horiz-adv-x="1181" d="M711 0H471V1155H57V1366H1124V1155H711V0Z" />
<glyph unicode="U" glyph-name="U" horiz-adv-x="1474" d="M737 -25Q448 -25 297 127T145 541V1366H389V547Q389 381 479 285T737 188Q905 188 995 284T1085 547V1366H1329V541Q1329 413 1292 310T1183 131T997 16T737 -25Z" />
<glyph unicode="V" glyph-name="V" horiz-adv-x="1378" d="M840 0H541L4 1366H276L690 262L1104 1366H1376L840 0Z" />
<glyph unicode="W" glyph-name="W" horiz-adv-x="1849" d="M1446 0H1190L926 1010L659 0H403L14 1366H281L547 315L829 1366H1020L1303 315L1569 1366H1837L1446 0Z" />
<glyph unicode="X" glyph-name="X" horiz-adv-x="1353" d="M1348 0H1061L678 535L295 0H8L518 700L39 1366H326L678 866L1028 1366H1317L836 702L1348 0Z" />
<glyph unicode="Y" glyph-name="Y" horiz-adv-x="1304" d="M774 0H535V567L4 1366H279L653 782L1028 1366H1303L774 567V0Z" />
<glyph unicode="Z" glyph-name="Z" horiz-adv-x="1206" d="M1116 0H92V195L788 1155H92V1366H1102V1174L401 211H1116V0Z" />
<glyph unicode="[" glyph-name="bracketleft" horiz-adv-x="542" d="M506 -389H90V1389H506V1241H250V-242H506V-389Z" />
<glyph unicode="\" glyph-name="backslash" horiz-adv-x="645" d="M485 -41L0 1407H160L645 -41H485Z" />
<glyph unicode="]" glyph-name="bracketright" horiz-adv-x="542" d="M453 -389H37V-242H293V1241H37V1389H453V-389Z" />
<glyph unicode="^" glyph-name="asciicircum" horiz-adv-x="894" d="M856 682H692L449 1217L205 682H39L371 1366H528L856 682Z" />
<glyph unicode="_" glyph-name="underscore" horiz-adv-x="1155" d="M1161 -229H-6V-82H1161V-229Z" />
<glyph unicode="`" glyph-name="grave" horiz-adv-x="491" d="M492 1139H338L0 1434H205L492 1139Z" />
<glyph unicode="a" glyph-name="a" horiz-adv-x="1099" d="M961 0H745V109Q690 45 607 10T424 -25Q363 -25 303 -4T193 57T113 161T82 303Q82 385 112 449T192 551T302 608T424 627Q635 627 745 500V647Q745 732 681 781T514 831Q344 831 221 705L131 854Q297
1014 547 1014Q634 1014 705 995T836 936T928 824T961 657V0ZM510 123Q581 123 644 149T745 225V377Q708 426 645 452T510 479Q418 479 358 430T297 301Q297 221 357 172T510 123Z" />
<glyph unicode="b" glyph-name="b" horiz-adv-x="1189" d="M354 297Q391 241 463 204T610 166Q736 166 812 258T889 496Q889 640 813 731T610 823Q535 823 464 785T354 690V297ZM354 0H139V1366H354V852Q413 931 496 972T672 1014Q867 1014 989 873T1112 496Q1112
255 990 115T672 -25Q578 -25 495 17T354 135V0Z" />
<glyph unicode="c" glyph-name="c" horiz-adv-x="1019" d="M590 -25Q367 -25 224 123T80 496T223 867T590 1014Q838 1014 969 838L827 709Q746 823 600 823Q467 823 384 732T301 496Q301 351 384 259T600 166Q743 166 827 285L969 152Q836 -25 590 -25Z" />
<glyph unicode="d" glyph-name="d" horiz-adv-x="1189" d="M1051 0H836V135Q778 60 696 18T518 -25Q325 -25 203 115T80 496Q80 732 202 873T518 1014Q613 1014 695 973T836 852V1366H1051V0ZM582 166Q656 166 727 204T836 299V690Q799 746 728 784T582 823Q455
823 378 732T301 496Q301 350 377 258T582 166Z" />
<glyph unicode="e" glyph-name="e" horiz-adv-x="1140" d="M598 -25Q371 -25 226 119T80 496Q80 602 117 697T220 862T380 973T582 1014Q802 1014 934 864T1067 477V424H305Q318 307 401 230T618 152Q695 152 772 181T901 262L999 121Q924 51 820 13T598 -25ZM860
578Q858 624 841 668T791 751T704 814T580 838Q514 838 461 815T376 752T325 669T303 578H860Z" />
<glyph unicode="f" glyph-name="f" horiz-adv-x="632" d="M408 0H193V803H29V989H193V1044Q193 1204 277 1295T504 1386Q662 1386 741 1300L657 1167Q612 1210 545 1210Q479 1210 444 1168T408 1044V989H608V803H408V0Z" />
<glyph unicode="g" glyph-name="g" horiz-adv-x="1189" d="M543 -401Q412 -401 314 -368T127 -254L227 -98Q340 -225 543 -225Q599 -225 648 -211T741 -167T810 -81T836 51V164Q778 86 696 42T518 -2Q324 -2 202 132T80 506Q80 742 201 878T518 1014Q612 1014
694 973T836 852V989H1051V51Q1051 -52 1021 -132T942 -262T826 -344T689 -388T543 -401ZM582 190Q655 190 726 228T836 322V692Q797 748 726 785T582 823Q454 823 378 736T301 506Q301 362 377 276T582 190Z" />
<glyph unicode="h" glyph-name="h" horiz-adv-x="1163" d="M1024 0H809V623Q809 733 759 778T610 823Q533 823 465 785T356 692V0H141V1366H356V856Q412 922 504 968T705 1014Q864 1014 944 934T1024 700V0Z" />
<glyph unicode="i" glyph-name="i" horiz-adv-x="493" d="M304 1110T248 1110T154 1149T115 1243T153 1337T248 1376T342 1337T381 1243T343 1149ZM354 0H139V989H354V0Z" />
<glyph unicode="j" glyph-name="j" horiz-adv-x="493" d="M304 1110T248 1110T154 1149T115 1243T153 1337T248 1376T342 1337T381 1243T343 1149ZM27 -401Q-55 -401 -104 -385T-207 -330L-143 -170Q-81 -225 -6 -225Q61 -225 100 -184T139 -57V989H354V-57Q354
-219 271 -310T27 -401Z" />
<glyph unicode="k" glyph-name="k" horiz-adv-x="1079" d="M1065 0H795L494 410L354 266V0H139V1366H354V512L791 989H1057L647 541L1065 0Z" />
<glyph unicode="l" glyph-name="l" horiz-adv-x="493" d="M354 0H139V1366H354V0Z" />
<glyph unicode="m" glyph-name="m" horiz-adv-x="1708" d="M1569 0H1354V645Q1354 823 1190 823Q1122 823 1059 785T961 692V0H745V645Q745 823 584 823Q516 823 454 784T354 692V0H139V989H354V856Q394 911 484 962T678 1014Q785 1014 853 966T948 834Q994 906
1086 960T1284 1014Q1421 1014 1495 939T1569 715V0Z" />
<glyph unicode="n" glyph-name="n" horiz-adv-x="1163" d="M1024 0H809V618Q809 729 757 776T608 823Q532 823 465 785T354 692V0H139V989H354V856Q409 921 502 967T705 1014Q863 1014 943 932T1024 696V0Z" />
<glyph unicode="o" glyph-name="o" horiz-adv-x="1175" d="M588 -25Q472 -25 376 16T215 129T116 295T80 496Q80 639 140 756T317 943T588 1014Q741 1014 858 944T1035 756T1096 496Q1096 390 1061 296T961 130T800 17T588 -25ZM588 166Q677 166 742 212T840 332T872
496Q872 634 796 728T588 823Q457 823 380 728T303 496Q303 357 379 262T588 166Z" />
<glyph unicode="p" glyph-name="p" horiz-adv-x="1185" d="M672 -25Q482 -25 354 137V-377H139V989H354V854Q410 929 493 971T672 1014Q867 1014 988 875T1110 496Q1110 255 989 115T672 -25ZM608 166Q735 166 812 258T889 496Q889 641 812 732T608 823Q534 823
463 786T354 692V301Q390 244 462 205T608 166Z" />
<glyph unicode="q" glyph-name="q" horiz-adv-x="1185" d="M578 166Q652 166 723 205T831 301V692Q794 748 723 785T578 823Q451 823 374 732T297 496Q297 350 374 258T578 166ZM514 -25Q319 -25 198 115T76 496Q76 736 197 875T514 1014Q609 1014 692 972T831
854V989H1047V-377H831V137Q705 -25 514 -25Z" />
<glyph unicode="r" glyph-name="r" horiz-adv-x="710" d="M354 0H139V989H354V846Q414 920 499 967T676 1014V801Q648 807 610 807Q541 807 464 767T354 674V0Z" />
<glyph unicode="s" glyph-name="s" horiz-adv-x="966" d="M479 -25Q352 -25 242 15T55 131L154 285Q208 228 302 188T487 147Q582 147 633 183T684 279Q684 313 659 337T591 375T495 401T385 426T275 461T179 513T112 595T86 715Q86 842 190 928T475 1014Q701
1014 858 877L768 725Q721 777 643 810T475 844Q392 844 343 810T293 721Q293 690 318 668T386 635T482 610T592 585T702 550T798 495T865 409T891 285Q891 149 782 62T479 -25Z" />
<glyph unicode="t" glyph-name="t" horiz-adv-x="653" d="M438 -25Q313 -25 249 40T184 231V803H20V989H184V1260H399V989H600V803H399V285Q399 232 424 199T494 166Q555 166 588 203L639 39Q568 -25 438 -25Z" />
<glyph unicode="u" glyph-name="u" horiz-adv-x="1161" d="M1022 0H807V131Q748 65 658 20T459 -25Q301 -25 220 56T139 289V989H354V369Q354 259 405 213T555 166Q632 166 699 203T807 295V989H1022V0Z" />
<glyph unicode="v" glyph-name="v" horiz-adv-x="1030" d="M631 0H399L-4 989H227L516 248L805 989H1034L631 0Z" />
<glyph unicode="w" glyph-name="w" horiz-adv-x="1546" d="M1229 0H1004L772 725L543 0H317L10 989H233L442 270L678 989H868L1102 270L1311 989H1536L1229 0Z" />
<glyph unicode="x" glyph-name="x" horiz-adv-x="1017" d="M1008 0H766L510 365L252 0H10L375 508L33 989H274L508 655L743 989H985L643 508L1008 0Z" />
<glyph unicode="y" glyph-name="y" horiz-adv-x="1030" d="M98 -387L129 -195Q166 -211 211 -211Q266 -211 300 -192T354 -125L403 -12L-4 989H227L516 248L805 989H1034L557 -178Q508 -298 425 -348T219 -401Q149 -401 98 -387Z" />
<glyph unicode="z" glyph-name="z" horiz-adv-x="974" d="M881 0H96V164L584 803H96V989H872V834L377 188H881V0Z" />
<glyph unicode="{" glyph-name="braceleft" horiz-adv-x="567" d="M532 -389H408Q290 -389 204 -306T117 -86V297Q117 357 90 396T10 436V563Q62 563 89 602T117 702V1083Q117 1219 203 1304T408 1389H532V1241H408Q352 1241 313 1198T274 1085V682Q274 538 182
500Q274 461 274 317V-84Q274 -152 313 -197T408 -242H532V-389Z" />
<glyph unicode="|" glyph-name="bar" horiz-adv-x="438" d="M293 -41H145V1407H293V-41Z" />
<glyph unicode="}" glyph-name="braceright" horiz-adv-x="567" d="M35 -389V-242H160Q214 -242 253 -197T293 -84V317Q293 461 385 500Q293 538 293 682V1085Q293 1154 254 1197T160 1241H35V1389H160Q277 1389 364 1304T451 1083V702Q451 642 478 603T557 563V436Q505
436 478 397T451 297V-86Q451 -221 364 -305T160 -389H35Z" />
<glyph unicode="~" glyph-name="asciitilde" horiz-adv-x="1038" d="M836 1366L985 1350Q978 1268 967 1203T934 1070T882 957T802 883T690 854Q637 854 597 874T532 928T490 1000T459 1080T433 1153T399 1206T350 1227Q237 1227 207 852L55 870Q61 937 69 992T93
1106T130 1209T182 1290T255 1345T350 1364Q403 1364 443 1344T508 1290T550 1216T581 1137T607 1064T641 1010T690 989Q801 989 836 1366Z" />
</font>
</defs>
</svg>
